<svg preserveAspectRatio="none" width="100%" height="100%" overflow="visible" style="display: block;" viewBox="0 0 48 48" fill="none" xmlns="http://www.w3.org/2000/svg">
<g id="Frame 5">
<path id="Icon (Stroke)" d="M24 4.28837C24.5795 4.28837 25.102 4.63545 25.3277 5.16915L30.3739 17.1095L43.3547 18.2363C43.9318 18.2864 44.4228 18.6769 44.6017 19.2279C44.7805 19.7788 44.613 20.3827 44.1754 20.7622L34.3497 29.2809L37.2794 41.9442C37.4099 42.5087 37.1905 43.097 36.7216 43.4373C36.2531 43.7768 35.6266 43.8033 35.1309 43.5049L24 36.7891L12.8691 43.5049C12.3734 43.8033 11.7469 43.7768 11.2784 43.4373C10.8095 43.097 10.5901 42.5087 10.7206 41.9442L13.6484 29.2809L3.8246 20.7622C3.38701 20.3827 3.21947 19.7788 3.39829 19.2279C3.57716 18.6769 4.06819 18.2864 4.64528 18.2363L17.6242 17.1095L22.6723 5.16915L22.7699 4.97759C23.0292 4.55382 23.493 4.28837 24 4.28837Z" fill="var(--fill-0, #FFC012)"/>
</g>
</svg>
