<svg preserveAspectRatio="xMidYMid meet" width="100%" height="100%" overflow="visible" style="display: block;" viewBox="0 0 48 48" fill="none" xmlns="http://www.w3.org/2000/svg">
<g id="Frame 5">
<path id="Icon (Stroke)" d="M24 4.28837C24.5795 4.28837 25.102 4.63545 25.3277 5.16915L30.3739 17.1095L43.3547 18.2363C43.9318 18.2864 44.4228 18.6769 44.6017 19.2279C44.7805 19.7788 44.613 20.3827 44.1754 20.7622L34.3497 29.2809L37.2794 41.9442C37.4099 42.5087 37.1905 43.097 36.7216 43.4373C36.2531 43.7768 35.6266 43.8033 35.1309 43.5049L24 36.7891L12.8691 43.5049C12.3734 43.8033 11.7469 43.7768 11.2784 43.4373C10.8095 43.097 10.5901 42.5087 10.7206 41.9442L13.6484 29.2809L3.8246 20.7622C3.38701 20.3827 3.21947 19.7788 3.39829 19.2279C3.57716 18.6769 4.06819 18.2864 4.64528 18.2363L17.6242 17.1095L22.6722 5.16915L22.7699 4.97759C23.0292 4.55382 23.493 4.28837 24 4.28837ZM19.9435 19.0326C19.7354 19.5248 19.2721 19.8615 18.7397 19.9077L8.28673 20.8148L16.195 27.6695C16.5984 28.0193 16.7751 28.5634 16.6551 29.0837L14.2982 39.2718L23.2544 33.8707L23.431 33.7806C23.8542 33.5987 24.3443 33.6287 24.7456 33.8707L33.6999 39.2718L31.3449 29.0837C31.2249 28.5634 31.4016 28.0193 31.805 27.6695L39.7114 20.8148L29.2603 19.9077C28.7279 19.8615 28.2646 19.5248 28.0565 19.0326L24 9.43222L19.9435 19.0326Z" fill="var(--fill-0, #192E41)"/>
</g>
</svg>
