<svg preserveAspectRatio="xMidYMid meet" width="100%" height="100%" overflow="visible" style="display: block;" viewBox="0 0 56.0515 56.4404" fill="none" xmlns="http://www.w3.org/2000/svg">
<g id="Container">
<path id="Icon" d="M32.5919 47.9746L32.6165 43.3464C36.1249 42.3681 38.9569 40.4867 41.1126 37.7023C43.2682 34.9179 44.3554 31.7572 44.3742 28.2202C44.393 24.6832 43.3393 21.5225 41.2132 18.7381C39.0871 15.9536 36.2751 14.0722 32.7771 13.0939L32.8016 8.46575C37.6227 9.51932 41.5416 11.8804 44.5582 15.5491C47.5749 19.2178 49.0705 23.4415 49.0451 28.2202C49.0198 32.9989 47.4793 37.2225 44.4237 40.8912C41.3681 44.5599 37.4242 46.921 32.5919 47.9746V47.9746M6.97025 35.0496L7.04214 21.5037H16.3841L28.1214 10.2154L27.9297 46.3378L16.3122 35.0496H6.97025V35.0496M32.6485 37.3072L32.745 19.1331C34.5701 19.9609 35.994 21.2027 37.0167 22.8583C38.0394 24.5139 38.5456 26.32 38.5352 28.2766C38.525 30.1956 37.9998 31.9735 36.9596 33.6103C35.9194 35.2471 34.4824 36.4794 32.6485 37.3072V37.3072M23.3923 21.165L18.3453 26.019H11.6891L11.6652 30.5343H18.3213L23.3168 35.3882L23.3923 21.165V21.165M17.5159 28.2766V28.2766V28.2766V28.2766V28.2766V28.2766V28.2766V28.2766" fill="var(--fill-0, #467FFB)"/>
</g>
</svg>
