<svg preserveAspectRatio="none" width="100%" height="100%" overflow="visible" style="display: block;" viewBox="0 0 80 80" fill="none" xmlns="http://www.w3.org/2000/svg">
<g id="Button">
<rect width="80" height="80" rx="40" fill="var(--fill-0, #F2F3F5)"/>
<path id="Icon" d="M24.4221 52.6633C23.1491 51.1893 22.1273 49.5477 21.3568 47.7387C20.5863 45.9297 20.1005 44.0201 19.8995 42.0101H24.0201C24.2211 43.4841 24.5896 44.8827 25.1256 46.206C25.6616 47.5293 26.3652 48.7437 27.2362 49.8492L24.4221 52.6633V52.6633M19.8995 37.99C20.1675 35.9799 20.67 34.0704 21.407 32.2613C22.1441 30.4523 23.1491 28.8107 24.4221 27.3367L27.2362 30.1508C26.3652 31.2563 25.6616 32.4707 25.1256 33.794C24.5896 35.1173 24.2211 36.5159 24.0201 37.99H19.8995V37.99M37.8895 60C35.8794 59.799 33.9782 59.3132 32.1859 58.5427C30.3936 57.7722 28.7437 56.7839 27.2362 55.5779L30.0503 52.6633C31.2228 53.5343 32.4539 54.2546 33.7437 54.8241C35.0335 55.3936 36.4154 55.7789 37.8895 55.9799V60V60M30.1508 27.3367L27.2362 24.4221C28.7437 23.2161 30.3936 22.2278 32.1859 21.4573C33.9782 20.6868 35.9129 20.201 37.99 20V24.0201C36.4824 24.2211 35.0754 24.6064 33.7688 25.1759C32.4623 25.7454 31.2563 26.4657 30.1508 27.3367V27.3367M34.9749 49.0452V30.9548L49.0452 40L34.9749 49.0452V49.0452M42.0101 60V55.9799C46.0637 55.4104 49.4221 53.6181 52.0854 50.603C54.7487 47.5879 56.0804 44.0536 56.0804 40C56.0804 35.9464 54.7487 32.4121 52.0854 29.397C49.4221 26.3819 46.0637 24.5896 42.0101 24.0201V20C47.1692 20.5695 51.474 22.7471 54.9246 26.5327C58.3752 30.3183 60.1005 34.8074 60.1005 40C60.1005 45.1926 58.3752 49.6817 54.9246 53.4673C51.474 57.2529 47.1692 59.4305 42.0101 60V60" fill="var(--fill-0, #467FFB)"/>
</g>
</svg>
