<svg preserveAspectRatio="none" width="100%" height="100%" overflow="visible" style="display: block;" viewBox="0 0 80 80" fill="none" xmlns="http://www.w3.org/2000/svg">
<g id="Button">
<rect width="80" height="80" rx="40" fill="var(--fill-0, #F2F3F5)"/>
<path id="Icon" d="M44.5238 59V54.5486C47.9167 53.6076 50.6498 51.7981 52.7232 49.12C54.7966 46.4419 55.8333 43.4019 55.8333 40C55.8333 36.5981 54.7966 33.5581 52.7232 30.88C50.6498 28.2019 47.9167 26.3924 44.5238 25.4514V21C49.1984 22.0133 53.0059 24.2843 55.9464 27.8129C58.8869 31.3414 60.3571 35.4038 60.3571 40C60.3571 44.5962 58.8869 48.6586 55.9464 52.1871C53.0059 55.7157 49.1984 57.9867 44.5238 59V59M19.6429 46.5686V33.54H28.6905L40 22.6829V57.4257L28.6905 46.5686H19.6429V46.5686M44.5238 48.74V31.26C46.2956 32.0562 47.681 33.2505 48.6801 34.8429C49.6791 36.4352 50.1786 38.1724 50.1786 40.0543C50.1786 41.9 49.6791 43.61 48.6801 45.1843C47.681 46.7586 46.2956 47.9438 44.5238 48.74V48.74M35.4762 33.2143L30.6131 37.8829H24.1667V42.2257H30.6131L35.4762 46.8943V33.2143V33.2143M29.8214 40.0543V40.0543V40.0543V40.0543V40.0543V40.0543V40.0543V40.0543" fill="var(--fill-0, #467FFB)"/>
</g>
</svg>
